<svg width="10" height="12" viewBox="0 0 10 12" fill="none" xmlns="http://www.w3.org/2000/svg">
<path d="M5.16312 0C1.87421 0 0.125122 2.1076 0.125122 4.40571C0.125122 5.47152 0.720651 6.80058 1.67395 7.2221C1.8187 7.28735 1.89746 7.2596 1.92971 7.12535C1.95821 7.02334 2.08347 6.53207 2.14422 6.3003C2.16297 6.22605 2.15322 6.16155 2.09322 6.09179C1.7767 5.72578 1.52544 5.059 1.52544 4.43346C1.52544 2.83064 2.79975 1.27431 4.96811 1.27431C6.8432 1.27431 8.15501 2.49237 8.15501 4.23471C8.15501 6.20355 7.11321 7.56562 5.75939 7.56562C5.01011 7.56562 4.45208 6.97759 4.62909 6.25005C4.84285 5.38376 5.26212 4.45222 5.26212 3.82744C5.26212 3.26716 4.94561 2.80364 4.29907 2.80364C3.53629 2.80364 2.91751 3.55892 2.91751 4.57297C2.91751 5.21725 3.14552 5.65227 3.14552 5.65227C3.14552 5.65227 2.39098 8.70042 2.25073 9.2697C2.01371 10.2335 2.28298 11.7943 2.30623 11.9286C2.32048 12.0028 2.40373 12.0261 2.45023 11.9653C2.52449 11.8678 3.43653 10.5665 3.69229 9.62597C3.7853 9.2832 4.16707 7.89338 4.16707 7.89338C4.41833 8.34715 5.14361 8.72742 5.91615 8.72742C8.21426 8.72742 9.87484 6.70757 9.87484 4.20095C9.86659 1.79784 7.80999 0 5.16312 0Z" fill="white"/>
</svg>
