<?xml version="1.0" encoding="utf-8"?>
<!-- Generator: Adobe Illustrator 19.2.1, SVG Export Plug-In . SVG Version: 6.00 Build 0)  -->
<svg version="1.1" id="layer" xmlns="http://www.w3.org/2000/svg" xmlns:xlink="http://www.w3.org/1999/xlink" x="0px" y="0px"
	 viewBox="0 0 652 652" style="enable-background:new 0 0 652 652;" xml:space="preserve">
<style type="text/css">
	.st0{fill:#231815;}
</style>
<g>
	<path class="st0" d="M26.2,377.2L20.5,355l3.5-1.1c6.6,10.5,15.2,15.4,27.1,15.4c13.4,0,21.6-7.6,21.6-19.6
		c0-11.9-8.2-17.3-21.7-25.4c-17.1-10.3-28.6-17.1-28.6-33.1c0-15.4,11.1-26.2,26.9-26.2c14.2,0,21.1,6.9,23.9,6.9
		c1.8,0,2.6-0.6,3.1-2.5l3.1,0.2l1.5,24.7l-3.5,0.5c-4.9-12.6-15.1-20-25.9-20c-10.2,0-16,5.5-16,14c0,9.1,6.5,14.2,17.6,21.1
		c19.7,12.3,33,19.6,33,38.5c0,18.2-13.1,30.8-32.5,30.8c-9.5,0-16.3-3.5-21.4-3.5c-1.5,0-2,0.2-2.6,1.9L26.2,377.2z"/>
	<path class="st0" d="M166,332.2l-19.1-43.9l-19.3,43.9H166z M112.5,369.8c0,2.8,1.5,4.2,4.5,4.8v2.9H96.5v-2.9c3.1-2,4.3-4.9,6-8.8
		l43.4-98.9h5.1l45.5,102c1.2,2.8,2.3,4.5,5.1,5.7v2.9h-24.7v-2.9c2.9-0.5,4.5-2,4.5-4.6c0-1.2-0.5-3.4-1.4-5.7l-9.7-22.3h-46.7
		l-9.7,22.3C113,366.5,112.5,368.5,112.5,369.8"/>
	<path class="st0" d="M199.4,277.6c-2-4.6-3.2-7.1-5.5-7.6v-3.2h23.7v3.2c-3.1,1.4-3.9,2.6-3.9,5.2c0,1.2,0.2,2.3,0.6,3.4l34.1,77.5
		l33.3-77.5c0.5-0.9,0.6-2.2,0.6-3.4c0-2.6-0.9-3.9-3.9-5.2v-3.2h21.1v3.2c-3.9,2-5.1,5.5-6.9,9.9l-43.5,98.5h-4.5L199.4,277.6z"/>
	<path class="st0" d="M310.9,374.2c4.8-1.7,5.4-4,5.4-8.9v-86.1c0-4.9-0.6-7.4-5.4-9.1v-3.2h72.8l5.4,14l-2.8,1.4
		c-4.6-4.5-10.2-4.9-18.9-4.9h-37.9v35.3h37.3c8.3,0,12.3-0.5,13.7-6.8h3.2v21.9h-3.2c-1.4-5.2-5.4-5.5-13.7-5.5h-37.3v45h38.8
		c8.6,0,14.5-0.5,19.1-5.1l2.6,1.5l-6.3,13.9h-72.8V374.2z"/>
	<path class="st0" d="M463.7,367.9c23,0,31.6-12.3,31.6-36.7v-52.1c0-4.9-0.6-7.4-5.4-9.1v-3.2h21.4v3.2c-4.9,1.7-5.4,4.2-5.4,9.1
		v49.5c0,11.4-0.2,21-4.8,29.7c-6.8,12.9-21,21-38.7,21c-27.3,0-44.7-17.7-44.7-51.9v-48.2c0-4.9-0.6-7.4-5.4-9.1v-3.2h23.9v3.2
		c-4.9,1.7-5.2,4.2-5.2,9.1v48.4C431,354.3,441.3,367.9,463.7,367.9"/>
	<path class="st0" d="M558.1,374.2v3.2h-23.9v-3.2c4.8-1.7,5.4-4,5.4-8.9v-86.1c0-4.9-0.6-7.4-5.4-9.1v-3.2h29.4
		c26.3,0,39.3,8.6,39.3,26.8c0,14.5-9.7,24-29,28c9.2,4.8,20.8,16,32.2,33.4c6.9,10.6,8.8,18.3,14.3,19.1v3.2h-23.3v-3.2
		c1.2-0.3,1.8-1.2,1.8-2.5c0-2.3-6.5-17.9-18.8-32.4c-7.1-8.3-14.6-13.7-23.4-16.3v-7.9c21.3-0.3,33-8.3,33-20.8
		c0-12.8-8.9-17.1-26.8-17.1h-10.2v88C552.8,370.2,553.3,372.5,558.1,374.2"/>
</g>
</svg>
