<svg width="12" height="9" viewBox="0 0 12 9" fill="none" xmlns="http://www.w3.org/2000/svg">
<path fill-rule="evenodd" clip-rule="evenodd" d="M11.2708 1.59734C10.8606 1.78346 10.4505 1.8455 9.97196 1.90754C10.4505 1.65938 10.7923 1.28715 10.929 0.790828C10.5188 1.03899 10.0403 1.16307 9.49344 1.28715C9.08329 0.914907 8.46806 0.666748 7.85282 0.666748C6.69072 0.666748 5.66533 1.59734 5.66533 2.71406C5.66533 2.90018 5.66533 3.02426 5.73369 3.14834C3.88799 3.0863 2.17901 2.27978 1.08526 1.03899C0.880186 1.34919 0.811827 1.65938 0.811827 2.09366C0.811827 2.7761 1.22198 3.3965 1.83722 3.76874C1.49542 3.76874 1.15362 3.64466 0.811827 3.52058C0.811827 4.51321 1.56378 5.31973 2.58917 5.50585C2.38409 5.56789 2.17901 5.56789 1.97393 5.56789C1.83721 5.56789 1.7005 5.56789 1.56378 5.50585C1.83722 6.31237 2.65753 6.93276 3.68291 6.93276C2.93096 7.49112 1.97393 7.80132 0.880186 7.80132C0.675109 7.80132 0.538391 7.80132 0.333313 7.80132C1.3587 8.35968 2.52081 8.73192 3.75127 8.73192C7.85282 8.73192 10.1087 5.62993 10.1087 2.96222C10.1087 2.90018 10.1087 2.7761 10.1087 2.71406C10.5872 2.40386 10.9973 2.03162 11.2708 1.59734Z" fill="white"/>
</svg>
